<?xml version="1.0" encoding="UTF-8" standalone="no"?><!DOCTYPE svg PUBLIC "-//W3C//DTD SVG 1.1//EN" "http://www.w3.org/Graphics/SVG/1.1/DTD/svg11.dtd"><svg width="100%" height="100%" viewBox="0 0 1359 945" version="1.1" xmlns="http://www.w3.org/2000/svg" xmlns:xlink="http://www.w3.org/1999/xlink" xml:space="preserve" xmlns:serif="http://www.serif.com/" style="fill-rule:evenodd;clip-rule:evenodd;stroke-linecap:round;stroke-linejoin:round;stroke-miterlimit:1.5;"><path id="progress-100" d="M826.396,389.799l-0,257.594l-290.792,0l0,-254.594c0,0 130.603,-4.84 179.03,-2.847c39.254,1.616 111.762,-0.153 111.762,-0.153Z" style="fill:#805d5d;"/><path id="progres-80" d="M826.396,450.799l-0,196.594l-290.792,0l0,-174.951l290.792,-21.643Z" style="fill:#805d5d;"/><path id="progress-50" d="M826.396,537.846l-0,109.547l-290.792,0l0,-128.547l290.792,19Z" style="fill:#805d5d;"/><path id="progress-10" d="M826.396,598.799l-0,48.594l-290.792,0l0,-35.594l290.792,-13Z" style="fill:#805d5d;"/><path id="progress-0" d="M826.396,644.799l-0,2.594l-290.792,0l0,-0.594c0,0 98.855,-1.693 147.317,-1.013c47.825,0.671 143.475,-0.987 143.475,-0.987Z" style="fill:#805d5d;"/><path id="mask" d="M842.396,374.299l-0,289.094l-321.792,0l0,-289.094l321.792,0Zm-288.237,87.574c-7.694,16.716 -15.555,37.573 -15.555,57.591c0,74.51 51.6,126.815 142.896,126.929c90.416,0.113 142.896,-53.31 142.896,-126.929c-0,-20.018 -7.716,-40.981 -15.555,-57.591c-18.118,-38.384 -61.176,-69.338 -61.176,-69.338l-133.366,-0c0,-0 -40.419,26.498 -60.14,69.338Z" style="fill:#fff;"/><g id="coffee-pot"><path id="pot" d="M538.119,456.341c22.205,-48.072 67.715,-82.042 67.715,-82.042l150.166,0c0,0 48.482,38.97 68.881,82.042c8.827,18.637 17.515,42.16 17.515,64.623c-0,82.608 -59.09,142.555 -160.896,142.429c-102.796,-0.128 -160.896,-58.821 -160.896,-142.429c0,-22.463 8.851,-45.866 17.515,-64.623Z" style="fill:none;stroke:#000;stroke-width:14.58px;"/><path id="handle" d="M764,374.214l0,2.908c-0,2.989 -2.423,5.413 -5.412,5.413l-154.176,-0c-2.989,-0 -5.412,-2.424 -5.412,-5.413l0,-42.175c0,-2.989 2.423,-5.412 5.412,-5.412l154.176,-0c2.989,-0 5.412,2.423 5.412,5.412l-0,2.746c15.038,-3.222 47.56,-9.008 64.87,-3.158c27.276,9.217 40.552,31.249 50.13,53c13.547,30.764 32.251,76.914 46,116c3.521,10.01 -13.614,16.722 -16,11c-23.833,-57.167 -59.813,-129.691 -85,-144c-8.62,-4.898 -44.631,0.902 -60,3.679Zm-189.597,-104.146c-0.717,-1.142 -0.676,-2.604 0.104,-3.703c0.781,-1.1 2.147,-1.621 3.462,-1.321l189.105,25.93c0.985,0.225 1.815,0.885 2.256,1.794c0.442,0.908 0.447,1.968 0.015,2.882l-14.355,26.692c-0.551,1.165 -1.725,1.908 -3.014,1.908l-142.946,0c-1.147,0 -2.213,-0.589 -2.823,-1.56l-31.804,-52.622Z"/></g></svg>