<?xml version="1.0" encoding="UTF-8" standalone="no"?><!DOCTYPE svg PUBLIC "-//W3C//DTD SVG 1.1//EN" "http://www.w3.org/Graphics/SVG/1.1/DTD/svg11.dtd"><svg width="100%" height="100%" viewBox="0 0 5334 5334" version="1.1" xmlns="http://www.w3.org/2000/svg" xmlns:xlink="http://www.w3.org/1999/xlink" xml:space="preserve" xmlns:serif="http://www.serif.com/" style="fill-rule:evenodd;clip-rule:evenodd;stroke-linecap:round;stroke-linejoin:round;stroke-miterlimit:1.5;"><path d="M5333.33,0l0,5333.33l-5333.33,0l0,-5333.33l5333.33,0Zm-1851.04,2004.34c-0,-84.61 -68.693,-153.302 -153.303,-153.302l-1324.64,-0c-84.61,-0 -153.302,68.692 -153.302,153.302l-0,1324.64c-0,84.61 68.692,153.303 153.302,153.303l1324.64,-0c84.61,-0 153.303,-68.693 153.303,-153.303l-0,-1324.64Z" style="fill-opacity:0.5;"/><rect id="Artboard1" x="0" y="0" width="5333.33" height="5333.33" style="fill:none;"/><g id="Artboard11" serif:id="Artboard1"><path d="M3482.29,2004.34l-0,1324.64c-0,84.61 -68.693,153.303 -153.303,153.303l-1324.64,-0c-84.61,-0 -153.302,-68.693 -153.302,-153.303l-0,-1324.64c-0,-84.61 68.692,-153.302 153.302,-153.302l1324.64,-0c84.61,-0 153.303,68.692 153.303,153.302Z" style="fill:none;stroke:#000;stroke-width:16.67px;"/><path d="M2341.67,3272.92l-106.989,-0c-56.51,-0 -102.389,-45.88 -102.389,-102.39l-0,-100.765m1350,203.155l-202.52,-0m-1147.48,-1211.23l-0,-210.646" style="fill:none;stroke:#000;stroke-width:16.67px;"/><path d="M2621.35,2747.92l-16.264,-0c-26.38,-0 -47.798,-21.418 -47.798,-47.799l-0,-66.903c-0,-26.38 21.418,-47.798 47.798,-47.798l16.264,-0m90.625,-0l16.264,-0c26.381,-0 47.799,21.418 47.799,47.798l-0,66.903c-0,26.381 -21.418,47.799 -47.799,47.799l-16.264,-0" style="fill:none;stroke:#000;stroke-width:16.67px;"/></g></svg>