<?xml version="1.0" encoding="UTF-8" standalone="no"?><!DOCTYPE svg PUBLIC "-//W3C//DTD SVG 1.1//EN" "http://www.w3.org/Graphics/SVG/1.1/DTD/svg11.dtd"><svg width="100%" height="100%" viewBox="0 0 635 515" version="1.1" xmlns="http://www.w3.org/2000/svg" xmlns:xlink="http://www.w3.org/1999/xlink" xml:space="preserve" xmlns:serif="http://www.serif.com/" style="fill-rule:evenodd;clip-rule:evenodd;stroke-linejoin:round;stroke-miterlimit:2;"><path d="M372.237,110.65c-0,0 -25.34,-42.815 -41.943,-52.427c-16.602,-9.612 -40.194,-6.991 -57.67,-10.486c-15.799,-3.16 -47.185,-10.485 -47.185,-10.485c0,-0 53.584,25.735 62.913,41.942c9.514,16.527 37.087,29.434 20.971,31.456c-24.441,3.068 -62.913,-1.747 -115.341,5.243c-29.038,3.872 -104.855,-20.971 -104.855,-20.971c0,0 51.554,28.835 110.098,41.942c25.807,5.778 52.428,5.243 52.428,5.243l-62.913,31.457c-0,-0 -41.942,47.185 -104.856,73.398c-25.043,10.435 -83.884,20.972 -83.884,20.972c1.932,-0.551 64.693,0.683 84.065,2.58c9.853,0.965 64.584,-7.261 83.704,-7.823c48.23,-1.418 99.612,-41.942 99.612,-41.942c0,-0 -38.525,44.486 -47.185,68.156c-13.107,35.825 -24.562,99.006 -31.456,136.312c-6.583,35.617 -31.457,89.127 -31.457,89.127c0.614,-0.249 48.32,-69.503 62.913,-83.885c25.395,-25.027 46.915,-23.539 94.37,-89.127c21.616,-29.875 36.699,-89.127 36.699,-89.127c0,0 5.243,72.525 15.729,99.613c9.098,23.504 36.762,38.86 47.185,62.913c11.359,26.214 20.971,94.37 20.971,94.37c-0,-0 6.744,-78.67 15.728,-110.098c10.158,-35.535 13.107,-77.768 10.486,-110.098c-2.368,-29.199 -26.214,-83.885 -26.214,-83.885c-0,0 32.33,27.962 52.427,36.7c19.824,8.619 46.273,8.694 68.156,15.728c24.467,7.864 78.642,36.699 78.642,36.699c0,0 -54.175,-41.068 -78.642,-62.913c-23.966,-21.398 -42.815,-48.059 -62.913,-62.913c-15.136,-11.188 -57.67,-26.214 -57.67,-26.214c-0,0 36.699,3.495 52.427,0c15.259,-3.391 27.203,-15.769 41.943,-20.971c14.854,-5.243 47.185,-10.486 47.185,-10.486c-0,0 -51.554,2.622 -73.399,0c-19.784,-2.374 -42.988,-10.485 -62.913,-10.485c-20.098,-0 -57.671,10.485 -57.671,10.485c0,0 41.101,-68.781 67.046,-96.487c9.66,-10.316 -10.158,-18.63 -17.743,-11.493c-28.523,26.84 -59.788,107.98 -59.788,107.98Z" style="fill:#c42323;"/></svg>